<svg width="38" height="38" viewBox="0 0 38 38" fill="none" xmlns="http://www.w3.org/2000/svg">
<path d="M37.7417 30.1138L35.1726 25.9106L19.5148 0.296862L19.5101 0.289737L19.5071 0.284393C19.488 0.255947 19.4659 0.229666 19.4412 0.206018C19.4311 0.194737 19.4234 0.181081 19.4127 0.170987C19.2974 0.0732795 19.1512 0.0196533 19 0.0196533C18.8489 0.0196533 18.7027 0.0732795 18.5874 0.170987C18.5761 0.181675 18.5678 0.195925 18.5571 0.2078C18.5332 0.231145 18.5117 0.256802 18.493 0.284393L18.49 0.289143L18.4852 0.296862L2.82746 25.9106L0.258304 30.1138C0.0208864 30.5073 -0.054603 30.9776 0.0477239 31.4257C0.150051 31.8738 0.422213 32.2647 0.806929 32.5161C6.20046 36.0925 12.5285 38 19 38C25.4716 38 31.7996 36.0925 37.1931 32.5161C37.5778 32.2647 37.85 31.8738 37.9523 31.4257C38.0546 30.9776 37.9792 30.5073 37.7417 30.1138ZM33.6656 26.2141C33.5326 26.3085 33.3997 26.4017 33.2655 26.4931C33.1206 26.5925 32.9747 26.6898 32.8279 26.7852C32.6901 26.8749 32.5518 26.9634 32.4122 27.0506C32.2727 27.1379 32.1183 27.2323 31.9699 27.3208C31.8215 27.4093 31.6861 27.4894 31.543 27.5708C31.3999 27.6521 31.2461 27.7382 31.0947 27.8201C30.9433 27.9021 30.8044 27.9775 30.6583 28.0529C30.5122 28.1283 30.3537 28.2079 30.2005 28.2833C30.0473 28.3587 29.9036 28.4287 29.757 28.4982C29.6103 28.5677 29.4476 28.6401 29.2927 28.709C29.1377 28.7779 28.9911 28.8432 28.8391 28.9067C28.6871 28.9702 28.525 29.0355 28.3641 29.0979C28.2031 29.1602 28.0601 29.2166 27.9069 29.276C27.7537 29.3354 27.5839 29.3948 27.4218 29.4494C27.2597 29.504 27.1154 29.5575 26.9616 29.6085C26.7977 29.662 26.6327 29.7124 26.4676 29.7629C26.3132 29.8098 26.1589 29.8585 26.0039 29.9024C25.8353 29.9505 25.6661 29.9945 25.4962 30.0384C25.3425 30.0788 25.1887 30.1209 25.0343 30.1571C24.8609 30.1993 24.6858 30.2361 24.5118 30.2759C24.3586 30.3097 24.206 30.3448 24.0522 30.3756C23.8741 30.4119 23.6906 30.4427 23.5096 30.4748C23.3599 30.5015 23.2127 30.53 23.0607 30.5544C22.8719 30.584 22.6819 30.6084 22.4919 30.6345C22.347 30.6541 22.2033 30.6761 22.0578 30.6939C21.8583 30.7176 21.6576 30.7355 21.457 30.7533C21.3198 30.7663 21.1832 30.7824 21.0455 30.793C20.8228 30.8109 20.5978 30.8215 20.374 30.8334C20.2552 30.8394 20.1418 30.8489 20.0254 30.8536C19.6858 30.8679 19.344 30.875 19 30.875C18.656 30.875 18.3134 30.8683 17.9722 30.8548C17.8535 30.85 17.7401 30.8405 17.6237 30.8346C17.3999 30.8227 17.1748 30.812 16.9522 30.7942C16.8144 30.7835 16.6779 30.7675 16.5407 30.7545C16.34 30.7355 16.1393 30.7176 15.9398 30.6951C15.7944 30.6779 15.6501 30.6559 15.5052 30.6357C15.3158 30.6096 15.1258 30.5852 14.937 30.5555C14.7868 30.5312 14.6401 30.5027 14.4875 30.476C14.3094 30.4439 14.1253 30.413 13.9454 30.3768C13.7916 30.346 13.6391 30.3109 13.4859 30.2771C13.3119 30.2385 13.1367 30.2017 12.9634 30.1583C12.809 30.1209 12.6552 30.0788 12.5014 30.0396C12.3316 29.9956 12.1624 29.9517 11.9938 29.9036C11.8388 29.8597 11.6844 29.811 11.5301 29.7641C11.365 29.7136 11.1999 29.6631 11.0361 29.6097C10.8823 29.5586 10.7291 29.504 10.5759 29.4506C10.4138 29.3912 10.2517 29.3372 10.0908 29.2772C9.9299 29.2172 9.78562 29.1585 9.63362 29.0991C9.48162 29.0397 9.31834 28.9738 9.15862 28.9079C8.9989 28.842 8.8558 28.7773 8.70499 28.7102C8.55418 28.6431 8.39446 28.5718 8.24068 28.4994C8.0869 28.427 7.9438 28.3575 7.79655 28.2845C7.6493 28.2114 7.49137 28.133 7.33996 28.0547C7.18855 27.9763 7.04784 27.9003 6.90296 27.8213C6.75809 27.7424 6.60312 27.6569 6.45468 27.572C6.30624 27.487 6.16968 27.4063 6.02777 27.322C5.88587 27.2377 5.7309 27.1439 5.58543 27.0518C5.43996 26.9598 5.30815 26.8737 5.1698 26.7864C5.03146 26.6991 4.87709 26.5935 4.73221 26.4943C4.59802 26.4029 4.46502 26.3096 4.33202 26.2152C4.26196 26.1654 4.19249 26.1143 4.12302 26.0632L15.83 6.91777C16.8719 7.23337 17.9905 7.1833 19 6.77586C20.009 7.18607 21.1284 7.23639 22.1701 6.91836L33.8735 26.062C33.804 26.1131 33.7345 26.1642 33.6656 26.2141ZM21.4564 5.87455C20.7107 6.01407 19.9401 5.91475 19.2541 5.59074C19.1747 5.55312 19.0879 5.53361 19 5.53361C18.9121 5.53361 18.8253 5.55312 18.7459 5.59074C18.06 5.91463 17.2893 6.01394 16.5437 5.87455L19 1.75333L21.4564 5.87455ZM36.5329 31.5281C31.3348 34.9741 25.2366 36.8118 19 36.8118C12.7635 36.8118 6.66523 34.9741 1.46718 31.5281C1.33642 31.4479 1.24256 31.3194 1.20599 31.1704C1.16942 31.0215 1.19308 30.8641 1.27184 30.7325L3.50315 27.0833C3.56549 27.1278 3.62962 27.1694 3.69196 27.2133C3.82377 27.3071 3.95677 27.3986 4.09037 27.4894C4.2487 27.5983 4.40921 27.7054 4.5719 27.8106C4.70727 27.8985 4.84383 27.9846 4.9804 28.0701C5.14309 28.1714 5.30617 28.2704 5.46965 28.367C5.60898 28.4493 5.74871 28.5307 5.88884 28.611C6.05449 28.7054 6.22015 28.7975 6.38759 28.8877C6.52929 28.9669 6.67179 29.0427 6.81508 29.1151C6.98252 29.2018 7.15095 29.2865 7.32037 29.3692C7.46584 29.4411 7.6119 29.5117 7.75855 29.58C7.92896 29.6602 8.09996 29.7368 8.27215 29.8128C8.41999 29.8781 8.56902 29.9434 8.71687 30.0057C8.89024 30.0788 9.06421 30.1482 9.23877 30.2171C9.38899 30.2765 9.5398 30.3359 9.69121 30.3952C9.86934 30.4606 10.0439 30.5229 10.2214 30.5846C10.3734 30.6381 10.5254 30.6915 10.6792 30.742C10.8573 30.8014 11.0355 30.8554 11.2189 30.9106C11.3727 30.9575 11.5259 31.005 11.6809 31.049C11.8637 31.1012 12.0478 31.1487 12.2325 31.1968C12.3862 31.2372 12.5394 31.2787 12.6938 31.3155C12.8814 31.3607 13.0696 31.4011 13.2585 31.4426C13.4128 31.4759 13.566 31.5115 13.721 31.5424C13.9134 31.581 14.1075 31.6142 14.3005 31.648C14.4531 31.6754 14.6045 31.7039 14.7571 31.7282C14.9572 31.7603 15.1585 31.7876 15.3591 31.8131C15.5082 31.8333 15.656 31.8565 15.8056 31.8725C16.017 31.898 16.2302 31.9164 16.4433 31.9366C16.5829 31.9497 16.7218 31.9657 16.859 31.977C17.0965 31.9954 17.334 32.0073 17.5715 32.0197C17.6902 32.0257 17.809 32.0352 17.9277 32.0399C18.2836 32.055 18.641 32.0625 19 32.0625C19.359 32.0625 19.7167 32.0554 20.0729 32.0411C20.1917 32.0364 20.3104 32.0269 20.4262 32.0209C20.6637 32.0085 20.9012 31.9966 21.1387 31.9782C21.2782 31.9675 21.4172 31.9509 21.5543 31.9378C21.7675 31.9176 21.9806 31.8992 22.1926 31.8737C22.3422 31.8565 22.4895 31.8333 22.6391 31.8143C22.8398 31.7876 23.0411 31.7615 23.2412 31.7294C23.3938 31.705 23.5452 31.6765 23.6978 31.6492C23.8907 31.6154 24.0849 31.5821 24.2773 31.5435C24.4322 31.5127 24.5854 31.477 24.7398 31.4438C24.9286 31.4022 25.1168 31.3619 25.3045 31.3167C25.4588 31.2793 25.612 31.2378 25.7658 31.198C25.9505 31.1499 26.1345 31.1024 26.3174 31.0501C26.4724 31.0062 26.6256 30.9587 26.7793 30.9118C26.9575 30.8566 27.1403 30.802 27.3191 30.7432C27.4728 30.6927 27.6248 30.6393 27.7768 30.5858C27.955 30.5265 28.1331 30.4617 28.3071 30.3964C28.4585 30.337 28.6087 30.2777 28.7589 30.2183C28.9341 30.1488 29.108 30.0794 29.2814 30.0063C29.4304 29.944 29.5783 29.8793 29.7261 29.814C29.8977 29.7374 30.0693 29.6608 30.2397 29.5806C30.3864 29.5123 30.5324 29.4417 30.6779 29.3698C30.8469 29.2867 31.0153 29.202 31.1832 29.1157C31.3261 29.0417 31.4686 28.9659 31.6107 28.8883C31.7781 28.798 31.9438 28.706 32.1094 28.6116C32.2496 28.5324 32.3893 28.4511 32.5286 28.3676C32.6925 28.2702 32.8556 28.1712 33.0179 28.0707C33.1544 27.9852 33.291 27.8991 33.4264 27.8112C33.5879 27.7059 33.7484 27.5989 33.9079 27.49C34.0415 27.3992 34.1745 27.3077 34.3063 27.2139C34.3686 27.17 34.4328 27.1284 34.4951 27.0839L36.7252 30.7337C36.8039 30.8648 36.8278 31.0217 36.7918 31.1703C36.7558 31.3189 36.6628 31.4475 36.5329 31.5281Z" fill="black"/>
</svg>
