<svg width="480" height="97" viewBox="0 0 480 97" fill="none" xmlns="http://www.w3.org/2000/svg">
<g clip-path="url(#clip0_171_1610)">
<path fill-rule="evenodd" clip-rule="evenodd" d="M78.9011 17.7198C80.4931 15.0481 79.2625 12.8823 76.1525 12.8823H56.4434C53.3334 12.8823 49.5216 15.0482 47.9296 17.7198L3.85688 91.6818C2.26488 94.3535 3.49548 96.5193 6.60552 96.5193H48.8397C51.9497 96.5193 55.7614 94.3535 57.3535 91.6818L73.5757 64.458C75.1677 61.7863 73.9371 59.6205 70.827 59.6205H59.5644C56.4544 59.6205 55.2238 57.4547 56.8158 54.783L78.9011 17.7198Z" fill="url(#paint0_linear_171_1610)"/>
<rect width="47.8653" height="59.1278" rx="2.81561" transform="matrix(1 0 -0.511893 0.859049 97.4371 0.788452)" fill="url(#paint1_linear_171_1610)"/>
<rect width="36.6029" height="36.6029" rx="2.81561" transform="matrix(1 0 -0.511893 0.859049 85.3709 58.8384)" fill="#F5921E"/>
</g>
<path d="M190.27 73.6538H179.136L204.26 24.5086H217.65L226.433 73.6538H215.299L209.323 35.7391H208.94L190.27 73.6538ZM192.814 54.3365H219.114L217.722 62.4474H191.422L192.814 54.3365ZM244.743 88.2438C241.415 88.2438 238.639 87.7878 236.416 86.876C234.208 85.9801 232.528 84.7563 231.376 83.2045C230.241 81.6527 229.617 79.9089 229.505 77.9732L239.199 76.7014C239.375 77.4533 239.711 78.1492 240.207 78.7891C240.719 79.429 241.447 79.9409 242.391 80.3249C243.351 80.7088 244.591 80.9008 246.11 80.9008C248.334 80.9008 250.27 80.3569 251.918 79.269C253.565 78.1972 254.581 76.3974 254.965 73.8698L256.069 67.1267H255.637C255.029 68.1506 254.197 69.1184 253.141 70.0303C252.102 70.9422 250.83 71.6861 249.326 72.262C247.838 72.8379 246.118 73.1259 244.167 73.1259C241.383 73.1259 238.967 72.486 236.92 71.2061C234.888 69.9103 233.416 67.9346 232.504 65.279C231.608 62.6073 231.496 59.2318 232.168 55.1524C232.872 50.977 234.136 47.4894 235.96 44.6898C237.784 41.8902 239.943 39.7945 242.439 38.4027C244.935 37.0109 247.534 36.315 250.238 36.315C252.302 36.315 253.965 36.6669 255.229 37.3709C256.509 38.0588 257.493 38.9226 258.181 39.9625C258.869 40.9863 259.357 41.9942 259.645 42.9861H260.052L261.06 36.7949H271.211L265.02 74.0138C264.524 77.1653 263.332 79.789 261.444 81.8847C259.573 83.9964 257.197 85.5802 254.317 86.636C251.438 87.7079 248.246 88.2438 244.743 88.2438ZM248.582 65.4469C250.214 65.4469 251.678 65.039 252.973 64.2231C254.285 63.3912 255.381 62.2074 256.261 60.6716C257.141 59.1198 257.757 57.2641 258.109 55.1044C258.461 52.9447 258.453 51.0729 258.085 49.4892C257.733 47.8894 257.045 46.6496 256.021 45.7697C255.013 44.8898 253.685 44.4499 252.038 44.4499C250.342 44.4499 248.854 44.9058 247.574 45.8177C246.294 46.7136 245.231 47.9614 244.383 49.5612C243.551 51.1609 242.967 53.0087 242.631 55.1044C242.279 57.2321 242.263 59.0718 242.583 60.6236C242.919 62.1594 243.583 63.3512 244.575 64.1991C245.566 65.031 246.902 65.4469 248.582 65.4469ZM289.904 74.3737C286.129 74.3737 283.001 73.6058 280.522 72.07C278.042 70.5182 276.298 68.3265 275.29 65.4949C274.298 62.6473 274.13 59.2798 274.786 55.3923C275.426 51.6009 276.714 48.2733 278.65 45.4097C280.602 42.5461 283.049 40.3144 285.993 38.7147C288.936 37.1149 292.216 36.315 295.831 36.315C298.263 36.315 300.463 36.7069 302.431 37.4908C304.414 38.2587 306.062 39.4266 307.374 40.9943C308.686 42.5461 309.582 44.4899 310.061 46.8255C310.557 49.1612 310.549 51.8968 310.038 55.0324L309.582 57.84H278.482L279.466 51.5049H300.967C301.207 50.0331 301.111 48.7293 300.679 47.5934C300.247 46.4576 299.527 45.5697 298.519 44.9298C297.511 44.2739 296.271 43.9459 294.8 43.9459C293.296 43.9459 291.888 44.3139 290.576 45.0498C289.264 45.7857 288.161 46.7535 287.265 47.9534C286.385 49.1372 285.817 50.425 285.561 51.8168L284.433 58.104C284.113 60.0397 284.177 61.6475 284.625 62.9273C285.089 64.2071 285.889 65.167 287.025 65.8069C288.161 66.4308 289.6 66.7428 291.344 66.7428C292.48 66.7428 293.544 66.5828 294.536 66.2628C295.544 65.9429 296.439 65.4709 297.223 64.847C298.007 64.2071 298.647 63.4152 299.143 62.4714L308.478 63.0953C307.614 65.367 306.302 67.3507 304.542 69.0464C302.783 70.7262 300.663 72.038 298.183 72.9819C295.719 73.9098 292.96 74.3737 289.904 74.3737ZM327.477 52.3448L323.926 73.6538H313.727L319.87 36.7949H329.589L328.533 43.298H328.941C330.109 41.1383 331.756 39.4346 333.884 38.1867C336.028 36.9389 338.468 36.315 341.203 36.315C343.763 36.315 345.899 36.8749 347.61 37.9948C349.338 39.1146 350.554 40.7064 351.258 42.7701C351.978 44.8338 352.098 47.3055 351.618 50.1851L347.682 73.6538H337.46L341.083 52.0088C341.451 49.7531 341.163 47.9934 340.219 46.7296C339.291 45.4497 337.796 44.8098 335.732 44.8098C334.356 44.8098 333.092 45.1058 331.94 45.6977C330.789 46.2896 329.821 47.1535 329.037 48.2893C328.269 49.4092 327.749 50.761 327.477 52.3448ZM372.393 74.3737C368.633 74.3737 365.522 73.5738 363.058 71.974C360.594 70.3583 358.859 68.1186 357.851 65.255C356.859 62.3754 356.675 59.0238 357.299 55.2004C357.907 51.4249 359.171 48.1214 361.09 45.2897C363.01 42.4581 365.45 40.2585 368.409 38.6907C371.369 37.1069 374.705 36.315 378.416 36.315C382.159 36.315 385.263 37.1229 387.727 38.7387C390.19 40.3384 391.926 42.5781 392.934 45.4577C393.942 48.3373 394.134 51.6889 393.51 55.5123C392.886 59.2718 391.606 62.5673 389.67 65.399C387.735 68.2306 385.295 70.4383 382.351 72.022C379.408 73.5898 376.088 74.3737 372.393 74.3737ZM373.401 66.4548C375.128 66.4548 376.656 65.9669 377.984 64.991C379.328 63.9991 380.44 62.6553 381.32 60.9596C382.215 59.2478 382.839 57.3121 383.191 55.1524C383.543 53.0247 383.567 51.1369 383.263 49.4892C382.959 47.8254 382.319 46.5136 381.344 45.5537C380.384 44.5938 379.064 44.1139 377.384 44.1139C375.656 44.1139 374.121 44.6098 372.777 45.6017C371.433 46.5776 370.321 47.9214 369.441 49.6331C368.561 51.3449 367.945 53.2886 367.593 55.4643C367.258 57.576 367.234 59.4638 367.522 61.1275C367.809 62.7753 368.441 64.0791 369.417 65.039C370.393 65.9829 371.721 66.4548 373.401 66.4548ZM410.955 52.3448L407.404 73.6538H397.205L403.349 36.7949H413.067L412.011 43.298H412.419C413.587 41.1383 415.235 39.4346 417.363 38.1867C419.506 36.9389 421.946 36.315 424.682 36.315C427.241 36.315 429.377 36.8749 431.089 37.9948C432.816 39.1146 434.032 40.7064 434.736 42.7701C435.456 44.8338 435.576 47.3055 435.096 50.1851L431.161 73.6538H420.938L424.562 52.0088C424.93 49.7531 424.642 47.9934 423.698 46.7296C422.77 45.4497 421.274 44.8098 419.21 44.8098C417.835 44.8098 416.571 45.1058 415.419 45.6977C414.267 46.2896 413.299 47.1535 412.515 48.2893C411.747 49.4092 411.227 50.761 410.955 52.3448ZM455.871 74.3737C452.096 74.3737 448.968 73.6058 446.489 72.07C444.009 70.5182 442.265 68.3265 441.257 65.4949C440.265 62.6473 440.097 59.2798 440.753 55.3923C441.393 51.6009 442.681 48.2733 444.617 45.4097C446.569 42.5461 449.016 40.3144 451.96 38.7147C454.903 37.1149 458.183 36.315 461.798 36.315C464.23 36.315 466.43 36.7069 468.397 37.4908C470.381 38.2587 472.029 39.4266 473.341 40.9943C474.653 42.5461 475.548 44.4899 476.028 46.8255C476.524 49.1612 476.516 51.8968 476.004 55.0324L475.548 57.84H444.449L445.433 51.5049H466.934C467.174 50.0331 467.078 48.7293 466.646 47.5934C466.214 46.4576 465.494 45.5697 464.486 44.9298C463.478 44.2739 462.238 43.9459 460.767 43.9459C459.263 43.9459 457.855 44.3139 456.543 45.0498C455.231 45.7857 454.127 46.7535 453.232 47.9534C452.352 49.1372 451.784 50.425 451.528 51.8168L450.4 58.104C450.08 60.0397 450.144 61.6475 450.592 62.9273C451.056 64.2071 451.856 65.167 452.992 65.8069C454.127 66.4308 455.567 66.7428 457.311 66.7428C458.447 66.7428 459.511 66.5828 460.503 66.2628C461.51 65.9429 462.406 65.4709 463.19 64.847C463.974 64.2071 464.614 63.4152 465.11 62.4714L474.445 63.0953C473.581 65.367 472.269 67.3507 470.509 69.0464C468.749 70.7262 466.63 72.038 464.15 72.9819C461.686 73.9098 458.927 74.3737 455.871 74.3737Z" fill="black"/>
<defs>
<linearGradient id="paint0_linear_171_1610" x1="54.4709" y1="96.5193" x2="12.6371" y2="67.0207" gradientUnits="userSpaceOnUse">
<stop stop-color="#00796D"/>
<stop offset="1" stop-color="#38C682"/>
</linearGradient>
<linearGradient id="paint1_linear_171_1610" x1="47.8653" y1="59.1278" x2="-7.12454" y2="51.524" gradientUnits="userSpaceOnUse">
<stop stop-color="#00796D"/>
<stop offset="1" stop-color="#38C682"/>
</linearGradient>
<clipPath id="clip0_171_1610">
<rect width="146.412" height="95.7307" fill="white" transform="translate(0.400513 0.788452)"/>
</clipPath>
</defs>
</svg>
