<svg width="22" height="20" viewBox="0 0 22 20" fill="none" xmlns="http://www.w3.org/2000/svg">
<path d="M4.7401 14C4.8501 13.51 4.6501 12.81 4.3001 12.46L1.8701 10.03C1.1101 9.27 0.810103 8.46 1.0301 7.76C1.2601 7.06 1.9701 6.58 3.0301 6.4L6.1501 5.88C6.6001 5.8 7.1501 5.4 7.3601 4.99L9.0801 1.54C9.5801 0.55 10.2601 0 11.0001 0C11.7401 0 12.4201 0.55 12.9201 1.54L14.6401 4.99C14.7701 5.25 15.0401 5.5 15.3301 5.67L4.5601 16.44C4.4201 16.58 4.1801 16.45 4.2201 16.25L4.7401 14Z" fill="#0C111F"/>
<path d="M17.7001 12.46C17.3401 12.82 17.1401 13.51 17.2601 14L17.9501 17.01C18.2401 18.26 18.0601 19.2 17.4401 19.65C17.1901 19.83 16.8901 19.92 16.5401 19.92C16.0301 19.92 15.4301 19.73 14.7701 19.34L11.8401 17.6C11.3801 17.33 10.6201 17.33 10.1601 17.6L7.2301 19.34C6.1201 19.99 5.1701 20.1 4.5601 19.65C4.3301 19.48 4.1601 19.25 4.0501 18.95L16.2101 6.79C16.6701 6.33 17.3201 6.12 17.9501 6.23L18.9601 6.4C20.0201 6.58 20.7301 7.06 20.9601 7.76C21.1801 8.46 20.8801 9.27 20.1201 10.03L17.7001 12.46Z" fill="#0C111F"/>
</svg>
