<svg width="20" height="20" viewBox="0 0 20 20" fill="none" xmlns="http://www.w3.org/2000/svg">
<path d="M9.93999 0.209953L7.52999 5.81995H5.11999C4.71999 5.81995 4.32999 5.84995 3.94999 5.92995L4.94999 3.52995L4.98999 3.43995L5.04999 3.27995C5.07999 3.20995 5.09999 3.14995 5.12999 3.09995C6.28999 0.409953 7.58999 -0.430047 9.93999 0.209953Z" fill="#0C111F"/>
<path d="M16.73 6.08995L16.71 6.07995C16.11 5.90995 15.5 5.81995 14.88 5.81995H8.61999L10.87 0.589953L10.9 0.519953C11.04 0.569953 11.19 0.639953 11.34 0.689953L13.55 1.61995C14.78 2.12995 15.64 2.65995 16.17 3.29995C16.26 3.41995 16.34 3.52995 16.42 3.65995C16.51 3.79995 16.58 3.93995 16.62 4.08995C16.66 4.17995 16.69 4.25995 16.71 4.34995C16.86 4.85995 16.87 5.43995 16.73 6.08995Z" fill="#0C111F"/>
<path d="M10.52 15.66H10.77C11.07 15.66 11.32 15.39 11.32 15.06C11.32 14.64 11.2 14.58 10.94 14.48L10.52 14.33V15.66Z" fill="#0C111F"/>
<path d="M16.29 7.51995C15.84 7.38995 15.37 7.31995 14.88 7.31995H5.11999C4.43999 7.31995 3.79999 7.44995 3.19999 7.70995C1.45999 8.45995 0.23999 10.19 0.23999 12.2V14.15C0.23999 14.39 0.25999 14.62 0.28999 14.86C0.50999 18.04 2.20999 19.74 5.38999 19.95C5.61999 19.98 5.84999 20 6.09999 20H13.9C17.6 20 19.55 18.24 19.74 14.74C19.75 14.55 19.76 14.35 19.76 14.15V12.2C19.76 9.98995 18.29 8.12995 16.29 7.51995ZM11.28 13.5C11.74 13.66 12.36 14 12.36 15.06C12.36 15.97 11.65 16.7 10.77 16.7H10.52V16.92C10.52 17.21 10.29 17.44 9.99999 17.44C9.70999 17.44 9.47999 17.21 9.47999 16.92V16.7H9.38999C8.42999 16.7 7.63999 15.89 7.63999 14.89C7.63999 14.6 7.86999 14.37 8.15999 14.37C8.44999 14.37 8.67999 14.6 8.67999 14.89C8.67999 15.31 8.99999 15.66 9.38999 15.66H9.47999V13.97L8.71999 13.7C8.25999 13.54 7.63999 13.2 7.63999 12.14C7.63999 11.23 8.34999 10.5 9.22999 10.5H9.47999V10.28C9.47999 9.98995 9.70999 9.75995 9.99999 9.75995C10.29 9.75995 10.52 9.98995 10.52 10.28V10.5H10.61C11.57 10.5 12.36 11.31 12.36 12.31C12.36 12.6 12.13 12.83 11.84 12.83C11.55 12.83 11.32 12.6 11.32 12.31C11.32 11.89 11 11.54 10.61 11.54H10.52V13.23L11.28 13.5Z" fill="#0C111F"/>
<path d="M8.67999 12.14C8.67999 12.56 8.79999 12.62 9.05999 12.72L9.47999 12.87V11.54H9.22999C8.91999 11.54 8.67999 11.81 8.67999 12.14Z" fill="#0C111F"/>
</svg>
