<svg width="20" height="20" viewBox="0 0 20 20" fill="none" xmlns="http://www.w3.org/2000/svg">
<path d="M10.0003 13.426C11.8921 13.426 13.4258 11.8923 13.4258 10.0004C13.4258 8.10852 11.8921 6.57485 10.0003 6.57485C8.10837 6.57485 6.5747 8.10852 6.5747 10.0004C6.5747 11.8923 8.10837 13.426 10.0003 13.426Z" fill="#0C111F"/>
<path fill-rule="evenodd" clip-rule="evenodd" d="M0 10C0 6.0054 0 4.0081 0.95188 2.5695C1.37694 1.9271 1.9271 1.37694 2.5695 0.95188C4.0081 0 6.0054 0 10 0C13.9946 0 15.9919 0 17.4305 0.95188C18.0729 1.37694 18.6231 1.9271 19.0481 2.5695C20 4.0081 20 6.0054 20 10C20 13.9946 20 15.9919 19.0481 17.4305C18.6231 18.0729 18.0729 18.6231 17.4305 19.0481C15.9919 20 13.9946 20 10 20C6.0054 20 4.0081 20 2.5695 19.0481C1.9271 18.6231 1.37694 18.0729 0.95188 17.4305C0 15.9919 0 13.9946 0 10ZM15.1774 10.0004C15.1774 12.8597 12.8595 15.1775 10.0003 15.1775C7.14101 15.1775 4.82313 12.8597 4.82313 10.0004C4.82313 7.14116 7.14101 4.82329 10.0003 4.82329C12.8595 4.82329 15.1774 7.14116 15.1774 10.0004ZM15.3821 5.77945C16.0539 5.77945 16.5985 5.23482 16.5985 4.56298C16.5985 3.89114 16.0539 3.34651 15.3821 3.34651C14.7102 3.34651 14.1656 3.89114 14.1656 4.56298C14.1656 5.23482 14.7102 5.77945 15.3821 5.77945Z" fill="#0C111F"/>
</svg>
