<svg width="20" height="20" viewBox="0 0 20 20" fill="none" xmlns="http://www.w3.org/2000/svg">
<path d="M0 2.7126C0 2.07126 0.225232 1.54215 0.675676 1.1253C1.12612 0.708427 1.71172 0.5 2.43243 0.5C3.14029 0.5 3.71299 0.705214 4.15058 1.11568C4.60102 1.53896 4.82625 2.09049 4.82625 2.77032C4.82625 3.386 4.60747 3.89906 4.16988 4.30952C3.71944 4.7328 3.12741 4.94444 2.39382 4.94444H2.37452C1.66666 4.94444 1.09396 4.7328 0.656371 4.30952C0.218784 3.88624 0 3.35393 0 2.7126ZM0.250965 19.5476V6.69528H4.53668V19.5476H0.250965ZM6.9112 19.5476H11.1969V12.3711C11.1969 11.9221 11.2484 11.5758 11.3514 11.3321C11.5315 10.896 11.805 10.5272 12.1718 10.2258C12.5386 9.92439 12.9987 9.77369 13.5521 9.77369C14.9936 9.77369 15.7143 10.7421 15.7143 12.6789V19.5476H20V12.1787C20 10.2803 19.5496 8.84055 18.6486 7.8593C17.7477 6.87806 16.5573 6.38744 15.0772 6.38744C13.417 6.38744 12.1236 7.09932 11.1969 8.52309V8.56157H11.1776L11.1969 8.52309V6.69528H6.9112C6.93693 7.10573 6.94981 8.38198 6.94981 10.524C6.94981 12.6661 6.93693 15.6739 6.9112 19.5476Z" fill="#0C111F"/>
</svg>
