<svg width="20" height="17" viewBox="0 0 20 17" fill="none" xmlns="http://www.w3.org/2000/svg">
<path d="M13.3634 0.00360187V0H14.3012L14.6438 0.0684355C14.8723 0.112865 15.0797 0.171089 15.266 0.243126C15.4524 0.315163 15.6327 0.399213 15.807 0.495257C15.9814 0.591301 16.1395 0.689164 16.2814 0.788809C16.422 0.887266 16.5483 0.99172 16.6601 1.10217C16.7707 1.21383 16.9432 1.24264 17.1776 1.18862C17.4121 1.13459 17.6646 1.05954 17.9351 0.9635C18.2056 0.867456 18.4731 0.7594 18.7376 0.639332C19.0021 0.519263 19.1632 0.44303 19.2209 0.410613C19.2774 0.377008 19.3075 0.358998 19.3111 0.356585L19.3147 0.351182L19.3327 0.342178L19.3508 0.333173L19.3688 0.324168L19.3868 0.315163L19.3904 0.309761L19.3959 0.306159L19.4013 0.302557L19.4049 0.297154L19.4229 0.291751L19.4409 0.288149L19.4373 0.315163L19.4319 0.342178L19.4229 0.369192L19.4139 0.396206L19.4049 0.414215L19.3959 0.432224L19.3868 0.459238C19.3808 0.477248 19.3748 0.501254 19.3688 0.531276C19.3628 0.561297 19.3057 0.681347 19.1975 0.891462C19.0893 1.10158 18.954 1.31468 18.7917 1.53079C18.6294 1.74691 18.4839 1.91018 18.3553 2.02065C18.2254 2.13231 18.1395 2.21034 18.0974 2.25477C18.0553 2.30039 18.0042 2.3424 17.9441 2.38084L17.8539 2.44027L17.8359 2.44927L17.8179 2.45828L17.8143 2.46368L17.8088 2.46728L17.8034 2.47088L17.7998 2.47628L17.7818 2.48529L17.7638 2.49429L17.7602 2.4997L17.7547 2.5033L17.7493 2.5069L17.7457 2.5123L17.7421 2.51771L17.7367 2.52131L17.7313 2.52491L17.7277 2.53031H17.8179L18.3228 2.42226C18.6595 2.35022 18.9811 2.26318 19.2876 2.16112L19.7746 1.99904L19.8287 1.98103L19.8557 1.97202L19.8738 1.96302L19.8918 1.95401L19.9098 1.94501L19.9279 1.936L19.9639 1.9306L20 1.927V1.96302L19.991 1.96662L19.982 1.97202L19.9784 1.97743L19.9729 1.98103L19.9675 1.98463L19.9639 1.99003L19.9603 1.99544L19.9549 1.99904L19.9495 2.00264L19.9459 2.00804L19.9423 2.01344L19.9369 2.01705L19.9279 2.03506L19.9188 2.05307L19.9134 2.05667C19.911 2.06027 19.8347 2.16231 19.6844 2.36283C19.5341 2.56453 19.453 2.66657 19.4409 2.66898C19.4289 2.67259 19.4121 2.6906 19.3904 2.72301C19.37 2.75662 19.2426 2.8905 19.0081 3.12462C18.7737 3.35874 18.5441 3.56704 18.3192 3.74955C18.0932 3.93324 17.979 4.15895 17.9766 4.4267C17.973 4.69323 17.9591 4.9946 17.9351 5.33077C17.911 5.66695 17.866 6.03012 17.7998 6.42033C17.7337 6.81054 17.6315 7.25177 17.4932 7.74402C17.355 8.23627 17.1867 8.71652 16.9883 9.18476C16.7899 9.65301 16.5825 10.0732 16.3661 10.4454C16.1497 10.8176 15.9513 11.1328 15.771 11.3909C15.5906 11.649 15.4073 11.8922 15.2209 12.1203C15.0346 12.3484 14.7989 12.6054 14.514 12.8911C14.2278 13.1756 14.0716 13.3317 14.0451 13.3593C14.0175 13.3857 13.8996 13.4842 13.6916 13.6547C13.4848 13.8264 13.2624 13.998 13.0243 14.1698C12.7875 14.3402 12.5699 14.4825 12.3715 14.5966C12.1731 14.7106 11.9339 14.8409 11.6537 14.9874C11.3748 15.1351 11.073 15.2719 10.7484 15.398C10.4238 15.5241 10.0812 15.6411 9.72047 15.7492C9.35978 15.8572 9.01113 15.9413 8.67448 16.0013C8.33785 16.0613 7.95612 16.1124 7.52931 16.1544L6.88909 16.2174V16.2264H5.71686V16.2174L5.56357 16.2084C5.46139 16.2024 5.37722 16.1964 5.31109 16.1904C5.24498 16.1844 4.99549 16.1514 4.56267 16.0913C4.12985 16.0313 3.79021 15.9713 3.54373 15.9113C3.29728 15.8512 2.93057 15.7372 2.44364 15.5691C1.95672 15.401 1.54013 15.2311 1.19387 15.0594C0.848819 14.8889 0.632408 14.7809 0.544635 14.7352C0.45807 14.6908 0.360685 14.6356 0.25248 14.5696L0.0901713 14.4705L0.0865825 14.4651L0.0811542 14.4615L0.0757439 14.4579L0.0721371 14.4525L0.0541028 14.4435L0.0360685 14.4345L0.0324797 14.4291L0.0270514 14.4255L0.0216411 14.4219L0.0180343 14.4165L0.0144454 14.4111L0.00901713 14.4075H0V14.3715L0.0180343 14.3751L0.0360685 14.3805L0.117223 14.3895C0.171326 14.3955 0.318611 14.4045 0.559062 14.4165C0.799531 14.4285 1.055 14.4285 1.32552 14.4165C1.59603 14.4045 1.87257 14.3775 2.15509 14.3354C2.43764 14.2934 2.77127 14.2214 3.156 14.1193C3.54074 14.0173 3.89421 13.896 4.21643 13.7555C4.53744 13.6139 4.76586 13.5082 4.90173 13.4386C5.03638 13.3701 5.24197 13.2429 5.51849 13.0568L5.93327 12.7776L5.93688 12.7722L5.94229 12.7686L5.94772 12.765L5.95131 12.7596L5.95491 12.7542L5.96032 12.7506L5.96575 12.747L5.96934 12.7416L5.98738 12.7362L6.00541 12.7326L6.00902 12.7146L6.01443 12.6966L6.01986 12.693L6.02344 12.6876L5.87917 12.6786C5.78299 12.6726 5.68981 12.6666 5.59964 12.6606C5.50947 12.6546 5.36821 12.6276 5.17583 12.5795C4.98348 12.5315 4.77609 12.4595 4.55365 12.3634C4.33124 12.2674 4.11482 12.1533 3.90442 12.0212C3.69403 11.8892 3.54193 11.7793 3.44815 11.6917C3.35558 11.6052 3.23535 11.4828 3.08747 11.3243C2.94079 11.1646 2.81335 11.0007 2.70514 10.8326C2.59693 10.6645 2.49354 10.4706 2.39497 10.2509L2.24527 9.92315L2.23625 9.89613L2.22723 9.86912L2.22182 9.85111L2.21821 9.8331L2.24527 9.8367L2.27232 9.84211L2.47069 9.86912C2.60296 9.88713 2.81035 9.89313 3.09288 9.88713C3.37542 9.88113 3.57078 9.86912 3.67899 9.85111C3.7872 9.8331 3.85333 9.82109 3.87737 9.81509L3.91344 9.80609L3.95852 9.79708L4.00361 9.78808L4.00721 9.78267L4.01262 9.77907L4.01805 9.77547L4.02164 9.77007L3.98557 9.76106L3.9495 9.75206L3.91344 9.74305L3.87737 9.73405L3.8413 9.72505C3.81726 9.71905 3.77518 9.70704 3.71506 9.68903C3.65495 9.67102 3.49264 9.60498 3.22813 9.49092C2.96364 9.37687 2.75324 9.26581 2.59693 9.15775C2.44024 9.04938 2.29084 8.93087 2.14968 8.80297C2.00902 8.6733 1.85454 8.50641 1.6862 8.30231C1.51789 8.09821 1.36761 7.86108 1.23535 7.59094C1.1031 7.3208 1.00391 7.06267 0.937782 6.81654C0.871916 6.57185 0.828461 6.32169 0.807953 6.06915L0.775473 5.69095L0.793508 5.69455L0.811542 5.69996L0.829576 5.70896L0.84761 5.71797L0.865645 5.72697L0.883679 5.73598L1.16321 5.86204C1.34958 5.94609 1.58101 6.01813 1.85753 6.07815C2.13407 6.13818 2.29937 6.17121 2.35347 6.1772L2.43463 6.18621H2.59693L2.59335 6.18081L2.58792 6.1772L2.58251 6.1736L2.5789 6.1682L2.57531 6.1628L2.56988 6.15919L2.56447 6.15559L2.56087 6.15019L2.54283 6.14119L2.5248 6.13218L2.52121 6.12678L2.51578 6.12318L2.51037 6.11957L2.50676 6.11417L2.48873 6.10517L2.47069 6.09616L2.46711 6.09076C2.4635 6.08835 2.41179 6.04993 2.31199 5.9755C2.2134 5.89986 2.11001 5.80202 2.0018 5.68195C1.8936 5.56188 1.78539 5.43581 1.67719 5.30375C1.56878 5.17139 1.47223 5.02977 1.38864 4.88053C1.30449 4.73046 1.21551 4.53954 1.12173 4.30783C1.02916 4.07731 0.958828 3.84499 0.91073 3.61087C0.862651 3.37675 0.8356 3.14564 0.829576 2.91751C0.823571 2.68939 0.829576 2.49429 0.84761 2.33221C0.865645 2.17013 0.901713 1.98702 0.955816 1.78292C1.00992 1.57882 1.08808 1.36271 1.19026 1.13459L1.34355 0.792411L1.35257 0.765397L1.36159 0.738383L1.36702 0.734781L1.3706 0.729378L1.37421 0.723976L1.37962 0.720374L1.38505 0.723976L1.38864 0.729378L1.39225 0.734781L1.39766 0.738383L1.40308 0.741985L1.40667 0.747388L1.41028 0.752791L1.41569 0.756392L1.42471 0.774402L1.43372 0.792411L1.43915 0.796013L1.44274 0.801416L1.6862 1.07156C1.84851 1.25165 2.04088 1.45276 2.2633 1.67487C2.48573 1.89698 2.60896 2.01224 2.633 2.02065C2.65706 2.03025 2.68711 2.05786 2.72317 2.10349C2.75924 2.14792 2.87948 2.25418 3.08386 2.42226C3.28826 2.59034 3.55576 2.78545 3.88638 3.00756C4.21702 3.22967 4.58371 3.44879 4.98647 3.6649C5.38925 3.88101 5.82207 4.07611 6.28494 4.2502C6.74783 4.4243 7.07244 4.53835 7.25879 4.59238C7.44516 4.64641 7.76375 4.71544 8.21461 4.79949C8.66546 4.88354 9.00512 4.93757 9.23354 4.96157C9.46198 4.98558 9.61829 4.99939 9.70243 5.003L9.82867 5.0066L9.82509 4.97958L9.81966 4.95257L9.78359 4.72745C9.75955 4.57738 9.74752 4.36727 9.74752 4.09713C9.74752 3.82699 9.76857 3.57786 9.81064 3.34974C9.85273 3.12161 9.91585 2.8905 10 2.65638C10.0842 2.42226 10.1665 2.23435 10.2471 2.09269C10.3288 1.95221 10.4358 1.79193 10.5681 1.61184C10.7003 1.43174 10.8717 1.24565 11.0821 1.05355C11.2925 0.861441 11.5329 0.690352 11.8034 0.54028C12.0739 0.390208 12.3234 0.276137 12.5518 0.198103C12.7803 0.120068 12.9727 0.0690298 13.1289 0.0450234C13.2852 0.0210169 13.3634 0.00720374 13.3634 0.00360187Z" fill="#0C111F"/>
</svg>
