<svg width="20" height="20" viewBox="0 0 20 20" fill="none" xmlns="http://www.w3.org/2000/svg">
<path d="M5.39219 1.12273C4.00443 1.84387 2.80495 2.88016 1.88994 4.14848C0.974917 5.4168 0.369815 6.88188 0.123148 8.42624H0.703116C4.44291 8.33958 7.37475 8.0156 9.76928 7.28232C8.72934 5.43844 7.46008 3.62923 5.93749 1.78935L5.93616 1.78801L5.39219 1.12273ZM0.0031548 9.75949L0.000488281 9.99947C0.000488281 12.6886 1.06176 15.1298 2.78833 16.927L3.00299 16.495C3.01492 16.4711 3.02827 16.448 3.04299 16.4257C5.25353 13.0633 7.75473 11.0634 10.5519 10.1661C10.7412 10.1048 10.9332 10.0488 11.1252 9.99814C10.9012 9.48471 10.6625 8.97787 10.4092 8.47824C7.78939 9.32218 4.64023 9.66883 0.725782 9.75815H0.00448806L0.0031548 9.75949Z" fill="#0C111F"/>
<path d="M3.81361 17.8563C5.57526 19.2474 7.75527 20.0024 9.99994 19.9988C11.1905 19.9988 12.3331 19.7908 13.3904 19.4095V18.4496C13.0651 15.8697 12.4931 13.5032 11.6332 11.2447C11.4065 11.3007 11.1812 11.3647 10.9585 11.4354C8.52935 12.2153 6.25881 13.9725 4.17892 17.1257L3.81494 17.8563H3.81361ZM14.7237 18.8149C16.0125 18.1233 17.1342 17.1579 18.0099 15.9864C18.8857 14.8149 19.4942 13.4658 19.7927 12.034L19.0394 11.694C16.8716 11.0567 14.8517 10.7954 12.9691 11.0074C13.8197 13.3006 14.3917 15.7084 14.7183 18.3243C14.7223 18.3509 14.7237 18.3776 14.7237 18.4069V18.8149ZM19.9781 10.6554C20.1541 8.03652 19.2892 5.45399 17.5715 3.46924L17.1755 3.90787C15.6156 5.80508 13.8344 7.12099 11.6692 8.01693C11.9518 8.58223 12.2158 9.15153 12.4598 9.72882C14.689 9.40884 17.0329 9.71016 19.4607 10.4288C19.4903 10.4374 19.5193 10.4481 19.5474 10.4608L19.9781 10.6554ZM16.6342 2.5173C14.8067 0.892421 12.4454 -0.00351316 9.99994 0.000133157C8.82933 0.000133157 7.70673 0.20012 6.66279 0.570762L6.96677 0.941404C8.59335 2.90527 9.94261 4.84648 11.0439 6.83168C13.1011 6.00107 14.7317 4.78648 16.1556 3.04926C16.1621 3.0411 16.1687 3.0331 16.1756 3.02527L16.6342 2.51863V2.5173Z" fill="#0C111F"/>
</svg>
