<svg width="88" height="88" viewBox="0 0 88 88" fill="none" xmlns="http://www.w3.org/2000/svg">
<rect x="1" y="1" width="86" height="86" rx="43" fill="white"/>
<path d="M37.4999 22.3334C31.8232 22.3334 27.2082 26.9484 27.2082 32.625C27.2082 38.1934 31.5632 42.7 37.2399 42.895C37.4132 42.8734 37.5866 42.8734 37.7166 42.895C37.7599 42.895 37.7816 42.895 37.8249 42.895C37.8466 42.895 37.8466 42.895 37.8682 42.895C43.4149 42.7 47.7699 38.1934 47.7916 32.625C47.7916 26.9484 43.1766 22.3334 37.4999 22.3334Z" fill="url(#paint0_linear_147_1246)"/>
<path d="M48.5066 48.6584C42.4616 44.6284 32.6032 44.6284 26.5149 48.6584C23.7632 50.5 22.2466 52.9917 22.2466 55.6567C22.2466 58.3217 23.7632 60.7917 26.4932 62.6117C29.5266 64.6484 33.5132 65.6667 37.4999 65.6667C41.4866 65.6667 45.4732 64.6484 48.5066 62.6117C51.2366 60.77 52.7533 58.3 52.7533 55.6134C52.7316 52.9484 51.2366 50.4784 48.5066 48.6584Z" fill="url(#paint1_linear_147_1246)"/>
<path d="M61.3116 33.9034C61.6582 38.1067 58.6683 41.79 54.5299 42.2884C54.5083 42.2884 54.5083 42.2884 54.4866 42.2884H54.4216C54.2916 42.2884 54.1616 42.2884 54.0532 42.3317C51.9516 42.44 50.0232 41.7684 48.5716 40.5334C50.8032 38.54 52.0816 35.55 51.8216 32.3C51.6699 30.545 51.0632 28.9417 50.1532 27.5767C50.9766 27.165 51.9299 26.905 52.9049 26.8184C57.1516 26.45 60.9432 29.6134 61.3116 33.9034Z" fill="url(#paint2_linear_147_1246)"/>
<path d="M65.6449 53.945C65.4716 56.0467 64.1283 57.8667 61.8749 59.1017C59.7083 60.2934 56.9782 60.8567 54.2699 60.7917C55.8299 59.3834 56.7399 57.6284 56.9132 55.765C57.1299 53.0784 55.8516 50.5 53.2949 48.4417C51.8433 47.2934 50.1532 46.3834 48.3116 45.7117C53.0999 44.325 59.1232 45.2567 62.8283 48.2467C64.8216 49.85 65.8399 51.865 65.6449 53.945Z" fill="url(#paint3_linear_147_1246)"/>
<rect x="1" y="1" width="86" height="86" rx="43" stroke="url(#paint4_linear_147_1246)" stroke-width="2"/>
<defs>
<linearGradient id="paint0_linear_147_1246" x1="65.6685" y1="65.6667" x2="16.2766" y2="57.2127" gradientUnits="userSpaceOnUse">
<stop stop-color="#00796D"/>
<stop offset="1" stop-color="#38C682"/>
</linearGradient>
<linearGradient id="paint1_linear_147_1246" x1="65.6685" y1="65.6667" x2="16.2766" y2="57.2127" gradientUnits="userSpaceOnUse">
<stop stop-color="#00796D"/>
<stop offset="1" stop-color="#38C682"/>
</linearGradient>
<linearGradient id="paint2_linear_147_1246" x1="65.6685" y1="65.6667" x2="16.2766" y2="57.2127" gradientUnits="userSpaceOnUse">
<stop stop-color="#00796D"/>
<stop offset="1" stop-color="#38C682"/>
</linearGradient>
<linearGradient id="paint3_linear_147_1246" x1="65.6685" y1="65.6667" x2="16.2766" y2="57.2127" gradientUnits="userSpaceOnUse">
<stop stop-color="#00796D"/>
<stop offset="1" stop-color="#38C682"/>
</linearGradient>
<linearGradient id="paint4_linear_147_1246" x1="88" y1="88" x2="-12.1105" y2="70.9" gradientUnits="userSpaceOnUse">
<stop stop-color="#00796D"/>
<stop offset="1" stop-color="#38C682"/>
</linearGradient>
</defs>
</svg>
