<svg width="88" height="88" viewBox="0 0 88 88" fill="none" xmlns="http://www.w3.org/2000/svg">
<rect x="1" y="1" width="86" height="86" rx="43" fill="white"/>
<path d="M43.8699 22.7884L38.6483 34.9434H33.4266C32.5599 34.9434 31.7149 35.0084 30.8916 35.1817L33.0583 29.9817L33.1449 29.7867L33.2749 29.44C33.3399 29.2884 33.3833 29.1584 33.4483 29.05C35.9616 23.2217 38.7783 21.4017 43.8699 22.7884Z" fill="url(#paint0_linear_147_1236)"/>
<path d="M58.5816 35.5284L58.5383 35.5067C57.2383 35.1384 55.9166 34.9434 54.5733 34.9434H41.0099L45.8849 23.6117L45.9499 23.46C46.2533 23.5684 46.5783 23.72 46.9033 23.8284L51.6916 25.8434C54.3566 26.9484 56.2199 28.0967 57.3683 29.4834C57.5633 29.7434 57.7366 29.9817 57.9099 30.2634C58.1049 30.5667 58.2566 30.87 58.3433 31.195C58.4299 31.39 58.4949 31.5634 58.5383 31.7584C58.8633 32.8634 58.8849 34.12 58.5816 35.5284Z" fill="url(#paint1_linear_147_1236)"/>
<path d="M45.1266 56.2634H45.6683C46.3183 56.2634 46.8599 55.6784 46.8599 54.9634C46.8599 54.0534 46.5999 53.9234 46.0366 53.7067L45.1266 53.3817V56.2634Z" fill="url(#paint2_linear_147_1236)"/>
<path d="M57.6283 38.6267C56.6533 38.345 55.6349 38.1934 54.5733 38.1934H33.4266C31.9533 38.1934 30.5666 38.475 29.2666 39.0384C25.4966 40.6634 22.8533 44.4117 22.8533 48.7667V52.9917C22.8533 53.5117 22.8966 54.01 22.9616 54.53C23.4383 61.42 27.1216 65.1034 34.0116 65.5584C34.5099 65.6234 35.0083 65.6667 35.5499 65.6667H52.4499C60.4666 65.6667 64.6916 61.8534 65.1033 54.27C65.1249 53.8584 65.1466 53.425 65.1466 52.9917V48.7667C65.1466 43.9784 61.9616 39.9484 57.6283 38.6267ZM46.7733 51.5834C47.7699 51.93 49.1133 52.6667 49.1133 54.9634C49.1133 56.935 47.5749 58.5167 45.6683 58.5167H45.1266V58.9934C45.1266 59.6217 44.6283 60.12 43.9999 60.12C43.3716 60.12 42.8733 59.6217 42.8733 58.9934V58.5167H42.6783C40.5983 58.5167 38.8866 56.7617 38.8866 54.595C38.8866 53.9667 39.3849 53.4684 40.0133 53.4684C40.6416 53.4684 41.1399 53.9667 41.1399 54.595C41.1399 55.505 41.8333 56.2634 42.6783 56.2634H42.8733V52.6017L41.2266 52.0167C40.2299 51.67 38.8866 50.9334 38.8866 48.6367C38.8866 46.665 40.4249 45.0834 42.3316 45.0834H42.8733V44.6067C42.8733 43.9784 43.3716 43.48 43.9999 43.48C44.6283 43.48 45.1266 43.9784 45.1266 44.6067V45.0834H45.3216C47.4016 45.0834 49.1133 46.8384 49.1133 49.005C49.1133 49.6334 48.6149 50.1317 47.9866 50.1317C47.3583 50.1317 46.8599 49.6334 46.8599 49.005C46.8599 48.095 46.1666 47.3367 45.3216 47.3367H45.1266V50.9984L46.7733 51.5834Z" fill="url(#paint3_linear_147_1236)"/>
<path d="M41.1399 48.6367C41.1399 49.5467 41.3999 49.6767 41.9633 49.8934L42.8733 50.2184V47.3367H42.3316C41.6599 47.3367 41.1399 47.9217 41.1399 48.6367Z" fill="url(#paint4_linear_147_1236)"/>
<rect x="1" y="1" width="86" height="86" rx="43" stroke="url(#paint5_linear_147_1236)" stroke-width="2"/>
<defs>
<linearGradient id="paint0_linear_147_1236" x1="65.1466" y1="65.6667" x2="16.9689" y2="57.6325" gradientUnits="userSpaceOnUse">
<stop stop-color="#00796D"/>
<stop offset="1" stop-color="#38C682"/>
</linearGradient>
<linearGradient id="paint1_linear_147_1236" x1="65.1466" y1="65.6667" x2="16.9689" y2="57.6325" gradientUnits="userSpaceOnUse">
<stop stop-color="#00796D"/>
<stop offset="1" stop-color="#38C682"/>
</linearGradient>
<linearGradient id="paint2_linear_147_1236" x1="65.1466" y1="65.6667" x2="16.9689" y2="57.6325" gradientUnits="userSpaceOnUse">
<stop stop-color="#00796D"/>
<stop offset="1" stop-color="#38C682"/>
</linearGradient>
<linearGradient id="paint3_linear_147_1236" x1="65.1466" y1="65.6667" x2="16.9689" y2="57.6325" gradientUnits="userSpaceOnUse">
<stop stop-color="#00796D"/>
<stop offset="1" stop-color="#38C682"/>
</linearGradient>
<linearGradient id="paint4_linear_147_1236" x1="65.1466" y1="65.6667" x2="16.9689" y2="57.6325" gradientUnits="userSpaceOnUse">
<stop stop-color="#00796D"/>
<stop offset="1" stop-color="#38C682"/>
</linearGradient>
<linearGradient id="paint5_linear_147_1236" x1="88" y1="88" x2="-12.1105" y2="70.9" gradientUnits="userSpaceOnUse">
<stop stop-color="#00796D"/>
<stop offset="1" stop-color="#38C682"/>
</linearGradient>
</defs>
</svg>
