<svg width="88" height="88" viewBox="0 0 88 88" fill="none" xmlns="http://www.w3.org/2000/svg">
<rect x="1" y="1" width="86" height="86" rx="43" fill="white"/>
<path d="M53.0783 22.3334H34.9216C27.0349 22.3334 22.3333 27.035 22.3333 34.9217V53.0567C22.3333 60.965 27.0349 65.6667 34.9216 65.6667H53.0566C60.9433 65.6667 65.6449 60.965 65.6449 53.0784V34.9217C65.6666 27.035 60.9649 22.3334 53.0783 22.3334ZM42.9816 47.315L34.9216 55.375H39.6666C40.5549 55.375 41.2916 56.1117 41.2916 57C41.2916 57.8884 40.5549 58.625 39.6666 58.625H30.9999C30.7833 58.625 30.5666 58.5817 30.3716 58.495C29.9816 58.3217 29.6566 58.0184 29.4833 57.6067C29.4183 57.4117 29.3749 57.2167 29.3749 57V48.3334C29.3749 47.445 30.1116 46.7084 30.9999 46.7084C31.8883 46.7084 32.6249 47.445 32.6249 48.3334V53.0784L40.6849 45.0184C41.3133 44.39 42.3533 44.39 42.9816 45.0184C43.6099 45.6467 43.6099 46.6867 42.9816 47.315ZM58.6249 39.6667C58.6249 40.555 57.8883 41.2917 56.9999 41.2917C56.1116 41.2917 55.3749 40.555 55.3749 39.6667V34.9217L47.3149 42.9817C46.9899 43.3067 46.5783 43.4584 46.1666 43.4584C45.7549 43.4584 45.3433 43.3067 45.0183 42.9817C44.3899 42.3534 44.3899 41.3134 45.0183 40.685L53.0783 32.625H48.3333C47.4449 32.625 46.7083 31.8884 46.7083 31C46.7083 30.1117 47.4449 29.375 48.3333 29.375H56.9999C57.2166 29.375 57.4116 29.4184 57.6283 29.505C58.0183 29.6784 58.3433 29.9817 58.5166 30.3934C58.5816 30.5884 58.6249 30.7834 58.6249 31V39.6667Z" fill="url(#paint0_linear_147_1229)"/>
<rect x="1" y="1" width="86" height="86" rx="43" stroke="url(#paint1_linear_147_1229)" stroke-width="2"/>
<defs>
<linearGradient id="paint0_linear_147_1229" x1="65.645" y1="65.6667" x2="16.3713" y2="57.2544" gradientUnits="userSpaceOnUse">
<stop stop-color="#00796D"/>
<stop offset="1" stop-color="#38C682"/>
</linearGradient>
<linearGradient id="paint1_linear_147_1229" x1="88" y1="88" x2="-12.1105" y2="70.9" gradientUnits="userSpaceOnUse">
<stop stop-color="#00796D"/>
<stop offset="1" stop-color="#38C682"/>
</linearGradient>
</defs>
</svg>
