<svg width="1402" height="681" viewBox="0 0 1402 681" fill="none" xmlns="http://www.w3.org/2000/svg">
<path fill-rule="evenodd" clip-rule="evenodd" d="M420.523 42.1445C394.158 56.8002 367.38 71.685 330.339 79.7346C293.173 87.813 246.045 90.6017 199.488 93.3566C182.661 94.3523 165.909 95.3436 149.729 96.5786C119.234 98.9062 90.7668 102.099 67.6085 107.807C44.4277 113.522 26.6783 121.732 17.493 134.011C-1.99659 160.067 -5.00908 194.087 12.7338 230.758C30.486 267.448 69.0197 306.786 132.607 343.34C195.906 379.731 277.69 399.864 363.923 418.003C378.484 421.066 393.171 424.072 407.917 427.09L407.935 427.093L407.943 427.095L407.943 427.095L407.944 427.095C480.489 441.942 554.445 457.077 621.671 480.693C680.475 501.348 730.034 528.295 778.899 554.863L778.916 554.872L778.932 554.881L778.949 554.89L778.965 554.899C785.478 558.44 791.978 561.975 798.487 565.486C853.858 595.363 909.821 623.617 978.907 640.603C1054.64 659.231 1133.17 672.325 1203.54 677.518C1273.93 682.712 1336.11 679.999 1379.18 667.046C1400.27 660.704 1412.56 651.277 1419.24 639.898C1425.92 628.509 1427.03 615.079 1425.57 600.63C1424.37 588.737 1421.45 576.209 1418.5 563.612L1418.5 563.603L1418.5 563.596C1417.87 560.885 1417.23 558.172 1416.62 555.461C1413.13 540.169 1410.17 524.962 1410.86 510.976C1411.51 497.831 1415.14 485.249 1419.11 472.825C1419.35 472.082 1419.59 471.34 1419.83 470.599C1420.17 469.542 1420.51 468.486 1420.85 467.431C1424.29 456.823 1427.71 446.288 1429.5 435.507C1431.58 422.919 1431.44 410.023 1426.5 396.362C1421.56 382.696 1411.8 368.225 1394.59 352.511C1359.6 320.554 1304.6 291.48 1242.56 263.4C1211.55 249.363 1178.8 235.58 1145.92 221.812C1143.71 220.886 1141.5 219.96 1139.29 219.034L1138.99 218.907C1108.42 206.109 1077.85 193.31 1048.6 180.322C1012.82 164.44 977.335 146.895 941.803 129.174C938.496 127.524 935.188 125.873 931.88 124.222L931.878 124.221C899.642 108.131 867.344 92.0101 834.729 76.9621C762.802 43.7769 689.361 15.8248 611.71 4.95237C533.975 -5.93268 489.271 7.1866 451.22 25.7871C440.678 30.9405 430.631 36.5257 420.523 42.1445ZM450.781 24.8887C489.003 6.20446 533.908 -6.95186 611.849 3.96203C689.642 14.8545 763.187 42.8532 835.148 76.0541C867.779 91.1092 900.091 107.237 932.325 123.327C935.634 124.978 938.942 126.63 942.25 128.279C977.781 146 1013.25 163.536 1049 179.408C1078.25 192.392 1108.81 205.187 1139.38 217.986C1141.69 218.954 1144 219.922 1146.31 220.889C1179.18 234.657 1211.95 248.445 1242.97 262.489C1305.01 290.57 1360.15 319.698 1395.26 351.773C1412.56 367.565 1422.43 382.166 1427.44 396.022C1432.45 409.882 1432.59 422.958 1430.48 435.671C1428.68 446.531 1425.24 457.147 1421.8 467.752C1421.22 469.544 1420.64 471.336 1420.07 473.129C1416.09 485.548 1412.5 498.022 1411.86 511.025C1411.18 524.859 1414.11 539.944 1417.59 555.239C1418.21 557.937 1418.84 560.642 1419.47 563.347L1419.47 563.35C1422.41 575.953 1425.36 588.562 1426.56 600.53C1428.03 615.074 1426.94 628.752 1420.1 640.404C1413.26 652.066 1400.72 661.614 1379.47 668.003C1336.22 681.01 1273.89 683.712 1203.47 678.516C1133.03 673.318 1054.45 660.214 978.669 641.574C909.452 624.556 853.396 596.25 798.012 566.366C791.49 562.847 784.978 559.307 778.455 555.76L778.437 555.751L778.419 555.741C729.55 529.17 680.063 502.263 621.339 481.636C554.184 458.046 480.308 442.926 407.763 428.079C393.003 425.058 378.299 422.049 363.717 418.982C277.495 400.845 195.563 380.687 132.109 344.207C68.4216 307.595 29.7045 268.129 11.8337 231.193C-6.04646 194.239 -3.0542 159.811 16.6922 133.412C26.0982 120.838 44.1485 112.56 67.3692 106.836C90.6123 101.107 119.149 97.9098 149.652 95.5815C165.879 94.3429 182.662 93.3498 199.507 92.353L199.508 92.3529C246.038 89.5995 293.043 86.8179 330.127 78.7574C367.014 70.7414 393.603 55.9606 419.927 41.3277L419.927 41.3275C430.061 35.6945 440.155 30.0835 450.781 24.8887ZM456.696 75.5378C433.244 88.5571 409.417 101.784 376.463 108.937C343.402 116.114 301.479 118.591 260.069 121.038L260.068 121.038L260.068 121.038L260.067 121.038L260.067 121.038C245.102 121.922 230.203 122.803 215.815 123.9C188.692 125.967 163.377 128.802 142.784 133.872C122.168 138.947 106.398 146.236 98.2411 157.127C80.9208 180.252 78.24 210.447 94.0132 243.003C109.796 275.578 144.059 310.511 200.61 342.977C256.902 375.293 329.634 393.173 406.333 409.285C419.278 412.005 432.335 414.674 445.444 417.353L445.456 417.355L445.458 417.356L445.459 417.356L445.464 417.357L445.465 417.357C509.995 430.547 575.786 443.994 635.589 464.975C687.902 483.324 731.99 507.263 775.457 530.865L775.469 530.871L775.613 530.949L775.662 530.976L775.8 531.051C781.492 534.141 787.173 537.226 792.861 540.291C842.109 566.827 891.878 591.921 953.315 607.011C1020.67 623.553 1090.52 635.182 1153.11 639.795C1215.72 644.409 1271.02 642 1309.31 630.501C1328.06 624.869 1338.98 616.501 1344.91 606.409C1350.84 596.306 1351.82 584.392 1350.53 571.563C1349.46 561 1346.86 549.874 1344.24 538.682L1344.24 538.68L1344.24 538.678C1343.68 536.27 1343.11 533.858 1342.56 531.449C1339.47 517.866 1336.83 504.352 1337.45 491.919C1338.02 480.236 1341.25 469.054 1344.79 458.018C1345.3 456.417 1345.82 454.819 1346.33 453.222C1349.39 443.801 1352.43 434.449 1354.02 424.879C1355.88 413.704 1355.75 402.26 1351.36 390.137C1346.97 378.009 1338.3 365.162 1323.01 351.21C1291.89 322.831 1242.97 297.01 1187.79 272.068C1160.21 259.6 1131.08 247.357 1101.84 235.128C1099.9 234.317 1097.96 233.507 1096.02 232.696L1095.69 232.556L1095.68 232.553C1068.49 221.184 1041.3 209.814 1015.27 198.275C983.454 184.168 951.888 168.583 920.285 152.842C917.342 151.377 914.398 149.909 911.454 148.442L911.451 148.441C882.78 134.149 854.057 119.832 825.05 106.467C761.077 76.9915 695.762 52.1661 626.706 42.5099C557.577 32.8433 517.827 44.4943 483.993 61.0118C474.621 65.5871 465.687 70.5468 456.697 75.5371L456.697 75.5373L456.697 75.5374L456.697 75.5376L456.696 75.5378ZM483.554 60.1132C517.559 43.5121 557.51 31.8242 626.844 41.5196C696.043 51.1956 761.462 76.0675 825.468 105.559C854.491 118.931 883.229 133.256 911.899 147.546L911.901 147.547C914.845 149.015 917.788 150.482 920.731 151.947C952.335 167.688 983.883 183.264 1015.68 197.361C1041.69 208.895 1068.88 220.262 1096.07 231.632L1096.07 231.632L1096.07 231.633L1096.08 231.634L1096.08 231.634L1098.87 232.803L1102.23 234.206C1131.46 246.434 1160.61 258.682 1188.2 271.156C1243.38 296.099 1292.43 321.975 1323.68 350.471C1339.06 364.502 1347.84 377.478 1352.3 389.796C1356.76 402.119 1356.88 413.743 1355.01 425.042C1353.4 434.692 1350.34 444.124 1347.28 453.542L1347.28 453.543L1347.28 453.548L1347.28 453.552C1346.76 455.142 1346.25 456.732 1345.74 458.323C1342.21 469.354 1339.02 480.427 1338.44 491.969C1337.84 504.248 1340.44 517.641 1343.54 531.227C1344.09 533.624 1344.65 536.028 1345.21 538.432L1345.21 538.433C1347.83 549.626 1350.45 560.83 1351.52 571.462C1352.83 584.386 1351.86 596.55 1345.77 606.915C1339.68 617.29 1328.51 625.779 1309.6 631.459C1271.13 643.011 1215.68 645.409 1153.04 640.792C1090.38 636.175 1020.48 624.536 953.077 607.982C891.509 592.861 841.647 567.714 792.387 541.171C786.586 538.045 780.794 534.9 774.992 531.75L774.978 531.742C731.506 508.139 687.49 484.24 635.258 465.919C575.525 444.962 509.815 431.531 445.285 418.341C432.164 415.659 419.091 412.987 406.128 410.264C329.439 394.154 256.559 376.249 200.112 343.844C143.461 311.321 109.015 276.26 93.1132 243.439C77.2025 210.599 79.8631 179.996 97.4408 156.527C105.819 145.342 121.89 137.986 142.545 132.901C163.223 127.81 188.607 124.971 215.739 122.903C230.174 121.802 245.103 120.92 260.087 120.034L260.088 120.034C301.472 117.589 343.272 115.118 376.251 107.96C409.051 100.841 432.69 87.717 456.101 74.7206L456.102 74.7203C465.116 69.7157 474.097 64.73 483.554 60.1132ZM424.733 138.788C453.394 132.569 474.122 121.065 494.514 109.747L494.515 109.746C502.329 105.41 510.093 101.1 518.236 97.1261C547.641 82.7745 582.188 72.6498 642.277 81.0503C702.307 89.4422 759.088 111.017 814.703 136.636C839.927 148.256 864.905 160.703 889.837 173.129L890.047 173.233C892.531 174.471 895.015 175.709 897.498 176.945C924.974 190.627 952.417 204.174 980.081 216.437C1002.7 226.463 1026.34 236.343 1049.97 246.222L1052.14 247.127L1055.35 248.47C1080.77 259.1 1106.1 269.741 1130.08 280.578C1178.06 302.258 1220.58 324.698 1247.62 349.357C1260.92 361.48 1268.45 372.637 1272.26 383.166C1276.07 393.69 1276.18 403.625 1274.57 413.329C1273.19 421.64 1270.55 429.761 1267.89 437.948L1267.89 437.953C1267.44 439.341 1266.99 440.731 1266.54 442.123C1263.47 451.716 1260.66 461.442 1260.16 471.607C1259.62 482.423 1261.92 494.178 1264.61 505.984C1265.09 508.082 1265.58 510.181 1266.07 512.277C1268.34 522.004 1270.6 531.669 1271.53 540.845C1272.65 551.99 1271.8 562.33 1266.65 571.094C1261.51 579.848 1252.03 587.113 1235.74 592.005C1202.46 601.999 1154.39 604.094 1099.96 600.083C1045.55 596.074 984.824 585.965 926.264 571.585C872.858 558.471 829.594 536.663 786.777 513.599C781.732 510.882 776.694 508.147 771.646 505.407C733.854 484.893 695.517 464.084 650.03 448.133C598.035 429.898 540.835 418.209 484.735 406.745L484.733 406.745L484.731 406.744L484.729 406.744C473.323 404.413 461.963 402.092 450.701 399.726C384.016 385.72 320.79 370.179 271.86 342.095C222.699 313.88 192.922 283.524 179.207 255.225C165.503 226.945 167.834 200.726 182.877 180.65C189.955 171.203 203.647 164.872 221.568 160.461C239.467 156.056 261.472 153.592 285.053 151.795C297.559 150.842 310.51 150.077 323.52 149.308L323.52 149.308C359.525 147.181 395.983 145.027 424.733 138.788ZM642.415 80.0599C582.121 71.6307 547.374 81.7922 517.798 96.2274C509.57 100.243 501.76 104.578 493.921 108.929L493.92 108.929L493.919 108.93C473.568 120.225 453.028 131.625 424.521 137.811C395.853 144.032 359.518 146.179 323.541 148.305H323.54L323.54 148.305L323.537 148.305C310.51 149.074 297.53 149.841 284.977 150.798C261.387 152.596 239.313 155.064 221.329 159.49C203.368 163.91 189.376 170.309 182.077 180.05C166.777 200.47 164.465 227.097 178.307 255.661C192.141 284.206 222.102 314.691 271.362 342.963C320.448 371.135 383.821 386.701 450.495 400.705C461.771 403.073 473.142 405.397 484.555 407.729C540.654 419.193 597.775 430.866 649.699 449.077C695.106 464.999 733.37 485.769 771.167 506.284L771.183 506.293L771.199 506.302L771.215 506.311C776.247 509.042 781.271 511.769 786.303 514.479C829.132 537.551 872.49 559.41 926.026 572.556C984.631 586.947 1045.41 597.066 1099.89 601.081C1154.35 605.094 1202.57 603.01 1236.02 592.963C1252.48 588.024 1262.2 580.637 1267.51 571.6C1272.81 562.574 1273.66 551.984 1272.52 540.744C1271.59 531.5 1269.31 521.76 1267.04 512.033L1267.04 512.029L1267.03 512.018C1266.89 511.42 1266.75 510.822 1266.62 510.224C1266.49 509.677 1266.36 509.131 1266.23 508.585C1266.01 507.643 1265.8 506.702 1265.58 505.762C1262.89 493.953 1260.63 482.32 1261.16 471.656C1261.66 461.633 1264.43 452.016 1267.5 442.428C1267.94 441.054 1268.38 439.68 1268.83 438.306L1268.84 438.276L1268.84 438.275L1268.84 438.273L1268.84 438.272C1271.5 430.087 1274.16 421.885 1275.56 413.493C1277.19 403.664 1277.08 393.549 1273.2 382.825C1269.32 372.106 1261.68 360.819 1248.3 348.619C1221.12 323.842 1178.47 301.347 1130.49 279.666C1106.5 268.823 1081.16 258.177 1055.74 247.548L1052.84 246.335L1050.36 245.301C1026.73 235.421 1003.1 225.545 980.486 215.523C952.845 203.27 925.42 189.732 897.944 176.05C895.389 174.778 892.834 173.505 890.278 172.231C865.349 159.808 840.359 147.354 815.122 135.728C759.472 110.093 702.588 88.4717 642.415 80.0599ZM529.864 142.32C512.311 152.066 494.459 161.977 469.782 167.335C445.034 172.707 413.65 174.562 382.663 176.394L382.661 176.394L382.66 176.394C371.465 177.055 360.322 177.714 349.562 178.534C329.269 180.081 310.336 182.203 294.938 185.994C279.517 189.791 267.755 195.237 261.679 203.35C248.753 220.611 246.745 243.156 258.531 267.484C270.325 291.832 295.939 317.958 338.241 342.245C380.341 366.416 434.745 379.795 492.135 391.852C501.83 393.889 511.61 395.888 521.429 397.895C569.708 407.764 618.938 417.827 663.686 433.526C702.84 447.263 735.838 465.184 768.36 482.846C772.705 485.206 777.042 487.561 781.383 489.901C818.23 509.759 855.455 528.532 901.407 539.82C951.801 552.196 1004.06 560.898 1050.88 564.35C1097.72 567.803 1139.08 565.999 1167.72 557.399C1181.73 553.191 1189.87 546.944 1194.28 539.427C1198.7 531.901 1199.44 523.016 1198.47 513.427C1197.68 505.532 1195.73 497.216 1193.77 488.841L1193.77 488.838C1193.35 487.034 1192.93 485.228 1192.51 483.422C1190.2 473.258 1188.22 463.128 1188.68 453.804C1189.11 445.043 1191.53 436.663 1194.18 428.404C1194.56 427.204 1194.95 426.008 1195.34 424.814C1197.63 417.763 1199.89 410.774 1201.08 403.623C1202.47 395.276 1202.37 386.735 1199.1 377.688C1195.82 368.636 1189.35 359.039 1177.91 348.608C1154.65 327.386 1118.06 308.069 1076.77 289.404C1056.14 280.074 1034.34 270.913 1012.46 261.762L1009.92 260.698L1007.85 259.832L1007.85 259.83C987.503 251.324 967.157 242.816 947.685 234.182C923.874 223.624 900.253 211.959 876.606 200.18C874.405 199.084 872.204 197.987 870.002 196.889C848.548 186.193 827.056 175.479 805.352 165.477C757.49 143.421 708.631 124.849 656.975 117.625C605.278 110.395 575.561 119.11 550.268 131.46C543.267 134.878 536.589 138.586 529.868 142.318L529.865 142.319L529.864 142.32ZM549.829 130.561C575.294 118.127 605.211 109.376 657.114 116.635C708.912 123.879 757.875 142.497 805.771 164.569C827.488 174.577 848.994 185.298 870.445 195.992L870.652 196.095C872.786 197.159 874.919 198.223 877.052 199.285C900.699 211.065 924.302 222.72 948.09 233.268C967.553 241.898 987.89 250.402 1008.24 258.91L1012.85 260.839C1034.73 269.99 1056.54 279.156 1077.19 288.493C1118.48 307.159 1155.19 326.529 1178.58 347.869C1190.11 358.378 1196.69 368.105 1200.04 377.348C1203.38 386.594 1203.47 395.316 1202.07 403.787C1200.87 411.018 1198.57 418.087 1196.28 425.134L1196.27 425.182C1195.89 426.358 1195.51 427.533 1195.13 428.708C1192.49 436.962 1190.11 445.234 1189.68 453.853C1189.23 463.024 1191.17 473.033 1193.49 483.2C1193.9 484.981 1194.31 486.767 1194.73 488.554L1194.74 488.587L1194.74 488.588C1196.7 496.965 1198.66 505.36 1199.47 513.326C1200.44 523.01 1199.72 532.144 1195.14 539.934C1190.56 547.733 1182.18 554.101 1168.01 558.357C1139.2 567.01 1097.69 568.803 1050.81 565.347C1003.92 561.89 951.609 553.179 901.169 540.791C855.087 529.471 817.768 510.646 780.909 490.781C776.565 488.44 772.228 486.085 767.884 483.726L767.882 483.725L767.881 483.724C735.354 466.059 702.428 448.178 663.355 434.47C618.677 418.795 569.528 408.749 521.25 398.88L521.241 398.878C511.419 396.87 501.634 394.87 491.93 392.831C434.55 380.776 379.998 367.373 337.743 343.112C295.342 318.768 269.544 292.513 257.631 267.92C245.708 243.308 247.695 220.355 260.878 202.75L261.279 203.05L260.878 202.75C267.175 194.343 279.238 188.829 294.699 185.023C310.181 181.211 329.184 179.085 349.486 177.537C360.293 176.713 371.467 176.053 382.68 175.39L382.681 175.39L382.682 175.39C413.643 173.56 444.904 171.712 469.57 166.358C494.093 161.034 511.757 151.226 529.268 141.503C536.017 137.756 542.742 134.021 549.829 130.561ZM516.444 195.533C536.982 191.073 551.846 182.819 566.45 174.71C572.039 171.606 577.591 168.524 583.408 165.683C604.431 155.417 629.132 148.171 672.115 154.183C715.066 160.191 755.698 175.636 795.506 193.982C813.561 202.303 831.441 211.217 849.289 220.116C851.117 221.028 852.944 221.939 854.771 222.849C874.439 232.647 894.087 242.351 913.892 251.135C930.09 258.317 947.013 265.395 963.932 272.471C965.214 273.007 966.497 273.543 967.779 274.079C985.977 281.693 1004.11 289.313 1021.27 297.073C1055.61 312.601 1086.03 328.664 1105.37 346.309C1114.87 354.979 1120.24 362.952 1122.96 370.466C1125.68 377.975 1125.76 385.065 1124.61 391.998C1123.63 397.942 1121.74 403.75 1119.84 409.617L1119.82 409.659C1119.5 410.638 1119.19 411.618 1118.87 412.601C1116.67 419.472 1114.66 426.453 1114.3 433.752C1113.91 441.522 1115.56 449.958 1117.49 458.413C1117.83 459.916 1118.18 461.42 1118.53 462.921L1118.53 462.922C1120.16 469.889 1121.78 476.8 1122.44 483.361C1123.24 491.329 1122.62 498.699 1118.96 504.938C1115.3 511.167 1108.55 516.353 1096.91 519.85C1073.12 526.999 1038.73 528.499 999.776 525.628C960.834 522.757 917.375 515.52 875.46 505.226C837.249 495.837 806.293 480.226 775.646 463.708C772.034 461.762 768.427 459.803 764.813 457.84L764.812 457.839C737.762 443.148 710.31 428.239 677.739 416.81C640.509 403.747 599.553 395.374 559.396 387.164C551.23 385.495 543.097 383.832 535.035 382.138C487.299 372.107 442.062 360.98 407.056 340.88C371.879 320.681 350.59 298.958 340.789 278.725C330.998 258.512 332.669 239.792 343.399 225.462C348.435 218.738 358.193 214.213 371.015 211.056C383.816 207.904 399.558 206.139 416.437 204.852C425.381 204.17 434.647 203.623 443.956 203.072C469.734 201.548 495.851 200.004 516.444 195.533ZM672.253 153.193C629.065 147.152 604.164 154.435 582.969 164.785C577.067 167.667 571.469 170.775 565.854 173.893C551.293 181.979 536.616 190.13 516.231 194.555C495.721 199.009 469.727 200.546 443.975 202.069C434.648 202.62 425.352 203.17 416.361 203.855C399.473 205.143 383.661 206.912 370.776 210.085C357.914 213.252 347.855 217.844 342.599 224.862L342.994 225.158L342.599 224.862C331.612 239.536 329.96 258.664 339.889 279.161C349.808 299.639 371.281 321.491 406.558 341.747C441.719 361.937 487.105 373.088 534.83 383.117C542.897 384.812 551.031 386.475 559.195 388.144L559.216 388.148C599.373 396.358 640.249 404.715 677.408 417.754C709.899 429.154 737.278 444.024 764.333 458.717C767.948 460.68 771.557 462.64 775.171 464.588C805.831 481.113 836.881 496.777 875.221 506.197C917.182 516.503 960.697 523.749 999.703 526.625C1038.7 529.499 1073.23 528.009 1097.2 520.808C1109 517.263 1116 511.955 1119.82 505.444C1123.64 498.942 1124.24 491.324 1123.43 483.261C1122.76 476.628 1121.13 469.639 1119.5 462.67C1119.15 461.175 1118.8 459.681 1118.46 458.191C1116.53 449.733 1114.92 441.419 1115.29 433.802C1115.65 426.644 1117.63 419.771 1119.82 412.906C1120.13 411.941 1120.45 410.975 1120.76 410.01L1120.78 409.937L1120.78 409.935C1122.69 404.073 1124.6 398.185 1125.6 392.162C1126.77 385.104 1126.69 377.834 1123.9 370.125C1121.12 362.421 1115.63 354.319 1106.04 345.57C1086.57 327.808 1056.02 311.69 1021.68 296.162C1004.5 288.395 986.362 280.77 968.164 273.157C966.885 272.621 965.604 272.086 964.324 271.551L964.323 271.55C947.401 264.473 930.486 257.399 914.298 250.221C894.515 241.447 874.885 231.752 855.217 221.954C853.39 221.044 851.563 220.133 849.736 219.222L849.735 219.221C831.888 210.323 813.995 201.401 795.925 193.074C756.083 174.712 715.347 159.22 672.253 153.193Z" fill="url(#paint0_linear_2_28)"/>
<defs>
<linearGradient id="paint0_linear_2_28" x1="715.89" y1="0.000218096" x2="715.89" y2="681" gradientUnits="userSpaceOnUse">
<stop stop-color="#E1E1E1"/>
<stop offset="1" stop-color="#E1E1E1" stop-opacity="0"/>
</linearGradient>
</defs>
</svg>
