<svg width="50" height="50" viewBox="0 0 50 50" fill="none" xmlns="http://www.w3.org/2000/svg">
<circle cx="25" cy="25" r="25" transform="rotate(-90 25 25)" fill="#54C1FB"/>
<path d="M23.5621 19.9408C23.5621 17.9171 21.858 16.1065 19.7278 16.1065C17.5976 16.1065 16 17.9171 16 19.9408C16 21.9645 17.7041 23.6686 19.7278 23.6686C21.858 23.6686 23.5621 21.9645 23.5621 19.9408Z" fill="white"/>
<path d="M33.7869 21.645L33.7869 18.1302C33.7869 17.0651 32.9348 16 31.8698 16L28.355 16C27.1834 16 26.3313 16.9586 26.3313 18.1302L26.3313 21.645C26.3313 22.7101 27.1834 23.6686 28.355 23.6686L31.8698 23.6686C32.8283 23.6686 33.7869 22.7101 33.7869 21.645Z" fill="white"/>
<path d="M33.787 31.9764L33.787 28.4616C33.787 27.3965 32.9349 26.4379 31.7633 26.4379L18.0237 26.4379C16.9586 26.4379 16 27.29 16 28.4616L16 31.9764C16 33.0415 16.8521 34.0001 18.0237 34.0001L31.7633 34.0001C32.8284 34.0001 33.787 33.0415 33.787 31.9764Z" fill="white"/>
</svg>
